<svg xmlns="http://www.w3.org/2000/svg" version="1.1" xmlns:xlink="http://www.w3.org/1999/xlink" width="512" height="512" x="0" y="0" viewBox="0 0 512 512" style="enable-background:new 0 0 512 512" xml:space="preserve" class=""><g><path d="M512 152.713a116.163 116.163 0 0 1-34.16 82.717l-95.563 95.563a116.87 116.87 0 0 1-197.127-58.714 32 32 0 0 1 62.66-13.027 53.017 53.017 0 0 0 89.212 26.486l95.563-95.564a52.979 52.979 0 1 0-74.923-74.923l-28.872 28.228a32 32 0 0 1-45.255-45.256L312.407 70A116.877 116.877 0 0 1 512 152.713zM182.915 367.254l-28.291 29.21c-20.879 20.879-54.671 21.059-75.327.4s-20.476-54.449.4-75.328l96.2-96.2c20.878-20.88 54.67-21.062 75.327-.4a52.053 52.053 0 0 1 14.2 26.456 32 32 0 0 0 62.7-12.834 115.88 115.88 0 0 0-31.648-58.877c-45.61-45.61-120-45.429-165.837.4l-96.2 96.2c-45.832 45.832-46.013 120.226-.4 165.838a117.4 117.4 0 0 0 165.836-.4l28.292-29.212a32 32 0 1 0-45.255-45.253z" fill="#000000" opacity="1" data-original="#000000" class=""></path></g></svg>